<?xml version="1.0" encoding="utf-8"?>
<!-- Generator: Adobe Illustrator 16.0.0, SVG Export Plug-In . SVG Version: 6.00 Build 0)  -->
<!DOCTYPE svg PUBLIC "-//W3C//DTD SVG 1.1//EN" "http://www.w3.org/Graphics/SVG/1.1/DTD/svg11.dtd">
<svg version="1.1" id="Ebene_1" xmlns="http://www.w3.org/2000/svg" xmlns:xlink="http://www.w3.org/1999/xlink" x="0px" y="0px"
	 width="16px" height="16px" viewBox="0 0 44 44" enable-background="new 0 0 44 44" xml:space="preserve">
<g>
	<g>
		<linearGradient id="SVGID_1_" gradientUnits="userSpaceOnUse" x1="12.8433" y1="43.9971" x2="12.8433" y2="4.882812e-04">
			<stop  offset="0" style="stop-color:#8A0E0F"/>
			<stop  offset="1" style="stop-color:#CF0716"/>
		</linearGradient>
		<path fill="url(#SVGID_1_)" d="M6.668,22.392c0.213-0.341,0.8-0.351,1.279-0.395c7.087-0.667,14.52-7.463,14.52-16.907
			c0-1.773-0.275-3.481-0.776-5.09H3.321C1.487,0,0,1.487,0,3.321v37.354c0,1.835,1.487,3.322,3.321,3.322h22.365L7.269,23.636
			C6.706,23.033,6.463,22.721,6.668,22.392z"/>
		<linearGradient id="SVGID_2_" gradientUnits="userSpaceOnUse" x1="28.6182" y1="43.9971" x2="28.6182" y2="4.882812e-04">
			<stop  offset="0" style="stop-color:#8A0E0F"/>
			<stop  offset="1" style="stop-color:#CF0716"/>
		</linearGradient>
		<path fill="url(#SVGID_2_)" d="M40.681,0h-9.433c0.003,0.159,0.008,0.318,0.008,0.477c0,11.104-7.934,20.439-18.022,22.879
			l18.675,20.641h8.772c1.836,0,3.322-1.487,3.322-3.322V3.321C44.003,1.487,42.517,0,40.681,0z"/>
	</g>
	<path fill="#FFFFFF" d="M21.688,0c0.503,1.609,0.778,3.317,0.778,5.09c0,9.444-7.433,16.24-14.52,16.907
		c-0.479,0.044-1.065,0.053-1.279,0.395c-0.206,0.329,0.037,0.641,0.6,1.244l18.419,20.361h6.22L13.231,23.356
		c10.089-2.44,18.024-11.775,18.024-22.879c0-0.159-0.005-0.318-0.009-0.477H21.688z"/>
</g>
</svg>
